<?xml version="1.0" encoding="utf-8"?>
<!-- Generator: Adobe Illustrator 27.5.0, SVG Export Plug-In . SVG Version: 6.00 Build 0)  -->
<svg version="1.1" xmlns="http://www.w3.org/2000/svg" xmlns:xlink="http://www.w3.org/1999/xlink" x="0px" y="0px"
	 viewBox="0 0 500 500" style="enable-background:new 0 0 500 500;" xml:space="preserve">
<g id="BACKGROUND">
	<rect style="fill:#FFFFFF;" width="500" height="500"/>
</g>
<g id="OBJECTS">
	<g style="opacity:0.4;">
		<path style="fill:#969696;" d="M61.175,422.436c0,0-50.618-30.467-32.102-71.225c10.887-23.964,58.142-15.042,53.171-54.924
			c-6.518-52.294-58.449-87.516-28.48-132.236c30.857-46.046,107.895,8.879,183.195-39.846
			c48.603-31.45,135.111-49.042,166.464,0.957c29.954,47.768-12.261,92.156,31.21,127.845c43.47,35.689,75.599,98.282-34.3,161.742
			c-5.471,3.159-10.281,8.662-16.243,8.662c-91.54,0-175.917-0.275-175.917-0.275"/>
		<path style="fill:#969696;" d="M51.307,378.513c-11.376-1.819-0.731,31.576,15.558,27.273
			C83.153,401.483,60.865,380.041,51.307,378.513z"/>
		<path style="fill:#969696;" d="M44.94,359.602c-6.514,2.348-4.292,16.506,5.346,13.503
			C59.925,370.103,51.346,357.293,44.94,359.602z"/>
		<path style="fill:#969696;" d="M384.091,423.409c-102.039-0.275-175.917-0.275-175.917-0.275"/>
	</g>
	<g>
		<g>
			<path style="fill:#2E363D;" d="M301.556,248.059c-1.774-0.392-3.466-1.186-4.894-2.296l0.461-0.565
				c1.342,1.043,2.931,1.788,4.597,2.156L301.556,248.059z M306.985,248.054l-0.165-0.704c1.665-0.371,3.253-1.12,4.592-2.165
				l0.462,0.564C310.449,246.862,308.758,247.659,306.985,248.054z M293.269,241.627c-0.803-1.618-1.212-3.355-1.216-5.165
				l0.74-0.001c0.004,1.7,0.388,3.333,1.142,4.852L293.269,241.627z M315.259,241.605l-0.666-0.314
				c0.751-1.52,1.132-3.153,1.132-4.855l0.53-0.034l0.21,0.017C316.465,238.248,316.06,239.986,315.259,241.605z M293.914,231.602
				l-0.668-0.312c0.787-1.601,1.954-3.036,3.377-4.15l0.462,0.564C295.75,228.75,294.652,230.098,293.914,231.602z M314.574,231.541
				c-0.748-1.499-1.853-2.841-3.197-3.88l0.459-0.566c1.43,1.106,2.606,2.535,3.402,4.13L314.574,231.541z M301.675,225.529
				l-0.166-0.704c0.896-0.201,1.82-0.304,2.745-0.304c0.002,0,0.004,0,0.004,0c0.905,0,1.806,0.097,2.68,0.288l-0.162,0.705
				c-0.821-0.179-1.668-0.27-2.517-0.27c0,0-0.003,0-0.004,0C303.384,225.243,302.517,225.339,301.675,225.529z"/>
		</g>
		<g>
			<path style="fill:#2E363D;" d="M60.6,214.607c0,0-0.003,0.001-0.005,0.001l-0.21,0.046l-0.158-0.706l0.203-0.044
				c0.001,0,0.003-0.001,0.003-0.001c1.593-0.355,3.142-0.877,4.607-1.55l0.315,0.653C63.843,213.702,62.243,214.24,60.6,214.607z
				 M55.165,215.184c-1.753-0.016-3.506-0.228-5.211-0.63l0.174-0.702c1.651,0.389,3.348,0.594,5.045,0.61L55.165,215.184z
				 M69.82,210.31l-0.458-0.567c1.33-1.023,2.544-2.197,3.61-3.49l0.577,0.453C72.448,208.042,71.193,209.254,69.82,210.31z
				 M45.021,212.797c-1.569-0.763-3.051-1.7-4.406-2.785l0.469-0.558c1.312,1.05,2.748,1.958,4.267,2.697L45.021,212.797z
				 M76.361,202.38l-0.665-0.316c0.745-1.492,1.316-3.065,1.699-4.678l0.72,0.163C77.72,199.214,77.13,200.839,76.361,202.38z
				 M36.957,206.339c-1.073-1.354-1.987-2.829-2.719-4.383l0.672-0.302c0.709,1.505,1.595,2.932,2.633,4.243L36.957,206.339z
				 M78.711,192.456h-0.739c0-1.649-0.192-3.307-0.572-4.93l0.721-0.161C78.513,189.04,78.712,190.753,78.711,192.456z
				 M33.32,196.941l-0.724,0.148c-0.361-1.681-0.528-3.397-0.495-5.1l0.74,0.013C32.809,193.652,32.971,195.314,33.32,196.941z
				 M76.069,183.579c-0.68-1.518-1.538-2.961-2.552-4.29l0.593-0.431c1.047,1.373,1.934,2.865,2.636,4.432L76.069,183.579z
				 M33.513,187.083l-0.718-0.175c0.427-1.658,1.047-3.272,1.844-4.799l0.659,0.328C34.526,183.915,33.925,185.479,33.513,187.083z
				 M70.043,175.67c-1.292-1.074-2.711-2.007-4.216-2.773l0.342-0.64c1.554,0.791,3.019,1.754,4.353,2.863L70.043,175.67z
				 M38.1,178.297l-0.568-0.463c1.125-1.314,2.402-2.504,3.796-3.536l0.447,0.575C40.425,175.872,39.189,177.025,38.1,178.297z
				 M61.084,171.111c-1.644-0.418-3.337-0.654-5.032-0.701l0.021-0.722c1.751,0.048,3.5,0.291,5.198,0.724L61.084,171.111z
				 M46.146,172.341l-0.303-0.659c1.394-0.611,2.863-1.09,4.366-1.426c0.216-0.049,0.423-0.091,0.634-0.133l0.145,0.708
				c-0.205,0.04-0.425,0.073-0.615,0.128C48.918,171.286,47.496,171.75,46.146,172.341z"/>
		</g>
		<g>
			<path style="fill:#2E363D;" d="M86.414,198.479c0.865,3.694-1.502,7.372-5.286,8.216c-3.784,0.844-7.552-1.466-8.417-5.16
				c-0.865-3.694,1.502-7.372,5.286-8.216C81.781,192.475,85.549,194.785,86.414,198.479z"/>
		</g>
		<g>
			<path style="fill:#2E363D;" d="M431.132,129.005c0,2.792-2.318,5.055-5.178,5.055c-2.86,0-5.178-2.263-5.178-5.055
				c0-2.792,2.318-5.055,5.178-5.055C428.814,123.95,431.132,126.213,431.132,129.005z"/>
		</g>
		<g>
			<path style="fill:#2E363D;" d="M299.451,227.747c0,1.994-1.656,3.611-3.699,3.611c-2.043,0-3.699-1.617-3.699-3.611
				c0-1.994,1.656-3.611,3.699-3.611C297.795,224.136,299.451,225.753,299.451,227.747z"/>
		</g>
		<g>
			<path style="fill:#2E363D;" d="M238.471,63.805c0,2.991-2.484,5.416-5.548,5.416c-3.064,0-5.548-2.425-5.548-5.416
				c0-2.991,2.484-5.416,5.548-5.416C235.986,58.389,238.471,60.814,238.471,63.805z"/>
		</g>
		<g>
			<path style="fill:#2E363D;" d="M242.909,80.414c-0.44,0-0.881-0.028-1.312-0.083l0.096-0.716
				c1.644,0.211,3.346-0.014,4.872-0.656l0.292,0.663C245.609,80.148,244.281,80.414,242.909,80.414z M236.707,78.307
				c-1.414-1.096-2.499-2.542-3.137-4.183l0.691-0.256c0.591,1.519,1.596,2.858,2.906,3.873L236.707,78.307z M251.002,76.379
				l-0.599-0.424c0.979-1.32,1.574-2.875,1.718-4.497l0.737,0.063C252.702,73.273,252.06,74.953,251.002,76.379z M233.662,70.665
				h-0.74c0-1.764,0.488-3.493,1.411-4.998l0.635,0.371C234.114,67.432,233.662,69.032,233.662,70.665z M251.236,66.736
				c-0.727-1.465-1.848-2.713-3.242-3.611l0.408-0.603c1.505,0.97,2.715,2.318,3.501,3.899L251.236,66.736z M238.522,62.717
				l-0.352-0.635c1.575-0.83,3.4-1.233,5.178-1.156l-0.033,0.721C241.672,61.578,239.979,61.949,238.522,62.717z"/>
		</g>
		<g>
			<path style="fill:#2E363D;" d="M437.306,148.347c-1.791-0.13-3.502-0.613-5.085-1.433l0.347-0.637
				c1.492,0.773,3.105,1.227,4.793,1.35L437.306,148.347z M442.553,147.679l-0.244-0.681c1.592-0.543,3.03-1.389,4.273-2.514
				l0.503,0.529C445.766,146.207,444.241,147.104,442.553,147.679z M428.151,143.612c-1.12-1.373-1.921-2.926-2.38-4.615
				l0.715-0.185c0.433,1.592,1.188,3.055,2.244,4.35L428.151,143.612z M450.151,140.802l-0.678-0.289
				c0.675-1.506,1.016-3.109,1.016-4.768h0.74C451.229,137.504,450.867,139.204,450.151,140.802z M450.418,134.446
				c-0.183-1.641-0.702-3.198-1.545-4.63l0.642-0.359c0.894,1.518,1.445,3.171,1.638,4.912L450.418,134.446z M426.215,133.949
				l-0.731-0.108c0.267-1.731,0.89-3.359,1.849-4.841l0.626,0.386C427.054,130.783,426.468,132.318,426.215,133.949z
				 M445.558,126.176c-1.36-0.987-2.884-1.675-4.529-2.044l0.166-0.704c1.745,0.391,3.361,1.121,4.803,2.168L445.558,126.176z
				 M431.429,125.884l-0.416-0.597c1.486-0.987,3.133-1.649,4.894-1.967l0.134,0.71
				C434.381,124.331,432.829,124.955,431.429,125.884z"/>
		</g>
	</g>
	<g>
		<g>
			<g>
				<path style="fill:#F5F5F5;" d="M235.239,189.608c20.498,5.726,40.996,11.453,61.494,17.179
					c-7.858-28.826,28.561-45.283,20.703-74.108c-20.498-5.726-40.996-11.453-61.494-17.179
					C263.8,144.326,227.381,160.783,235.239,189.608z"/>
			</g>
			<g>
				<path style="fill:none;stroke:#121D30;stroke-width:0.75;stroke-miterlimit:10;" d="M278.337,173.825l-11.093-2.769l0.277-1.109
					c0.471-1.887,1.068-3.367,1.79-4.437c0.722-1.07,1.628-1.986,2.717-2.748c1.09-0.762,3.419-1.999,6.99-3.713
					c1.897-0.891,2.979-1.871,3.246-2.942c0.267-1.07,0.158-1.981-0.326-2.733c-0.484-0.751-1.369-1.288-2.653-1.608
					c-1.382-0.345-2.639-0.173-3.772,0.516c-1.133,0.689-2.111,2.14-2.932,4.354l-10.976-4.229c1.429-4.067,3.779-7.042,7.05-8.923
					c3.271-1.881,7.631-2.142,13.08-0.781c4.242,1.059,7.446,2.8,9.612,5.222c2.944,3.278,3.918,6.912,2.922,10.901
					c-0.413,1.654-1.269,3.136-2.567,4.445c-1.299,1.309-3.636,2.721-7.011,4.235c-2.355,1.066-3.907,2.007-4.658,2.822
					C279.281,171.14,278.716,172.307,278.337,173.825z M266.129,173.909l11.881,2.966l-2.616,10.48l-11.881-2.966L266.129,173.909z"
					/>
			</g>
		</g>
		<g>
			<g>
				<path style="fill:#F5F5F5;" d="M345.358,138.264c20.368-6.174,40.736-12.347,61.104-18.521
					c-22.105-20.101-0.215-53.537-22.32-73.637c-20.368,6.174-40.736,12.347-61.103,18.521
					C345.143,84.728,323.253,118.164,345.358,138.264z"/>
			</g>
			<g>
				<path style="fill:none;stroke:#121D30;stroke-width:0.75;stroke-miterlimit:10;" d="M373.941,99.541l-11.006,3.095l-0.31-1.101
					c-0.527-1.873-0.742-3.453-0.646-4.741c0.096-1.288,0.429-2.532,0.997-3.734c0.568-1.202,1.978-3.432,4.229-6.69
					c1.206-1.714,1.659-3.102,1.361-4.164c-0.299-1.062-0.845-1.799-1.638-2.212c-0.793-0.412-1.827-0.439-3.101-0.081
					c-1.371,0.386-2.378,1.158-3.02,2.318c-0.643,1.16-0.772,2.905-0.388,5.235l-11.629,1.77c-0.776-4.24-0.21-7.989,1.698-11.244
					c1.908-3.256,5.565-5.643,10.971-7.164c4.209-1.184,7.855-1.261,10.936-0.231c4.182,1.387,6.83,4.059,7.943,8.018
					c0.462,1.641,0.453,3.352-0.025,5.133c-0.479,1.781-1.808,4.165-3.989,7.154c-1.516,2.093-2.398,3.68-2.646,4.76
					C373.43,96.742,373.517,98.035,373.941,99.541z M363.381,105.667l11.788-3.315l2.924,10.398l-11.788,3.315L363.381,105.667z"/>
			</g>
		</g>
		<g>
			<g>
				<path style="fill:#F5F5F5;" d="M425.48,238.386c-21.045,3.172-42.09,6.344-63.136,9.516
					c11.33-27.646-22.798-48.44-11.469-76.087c21.045-3.172,42.09-6.344,63.136-9.516
					C402.681,189.946,436.809,210.74,425.48,238.386z"/>
			</g>
			<g>
				<path style="fill:none;stroke:#121D30;stroke-width:0.75;stroke-miterlimit:10;" d="M395.126,211.139l-11.163,2.47l-0.247-1.116
					c-0.42-1.9-0.546-3.489-0.377-4.77c0.169-1.28,0.571-2.504,1.206-3.672c0.635-1.168,2.168-3.315,4.599-6.441
					c1.3-1.643,1.831-3.004,1.593-4.081c-0.238-1.077-0.742-1.844-1.51-2.3c-0.769-0.456-1.799-0.542-3.092-0.256
					c-1.391,0.308-2.439,1.022-3.146,2.144c-0.707,1.122-0.935,2.857-0.682,5.204l-11.71,1.112
					c-0.536-4.277,0.241-7.988,2.329-11.131c2.088-3.143,5.874-5.321,11.358-6.534c4.269-0.945,7.913-0.816,10.932,0.385
					c4.097,1.62,6.59,4.438,7.478,8.453c0.368,1.665,0.263,3.373-0.315,5.123c-0.578,1.751-2.04,4.057-4.386,6.918
					c-1.632,2.005-2.602,3.539-2.91,4.604C394.774,208.316,394.788,209.611,395.126,211.139z M384.238,216.66l11.956-2.645
					l2.333,10.546l-11.956,2.645L384.238,216.66z"/>
			</g>
		</g>
	</g>
	<g>
		<g>
			<g>
				<g>
					<g>
						<path style="fill:#121D30;" d="M151.51,145.27c0,0,16.145-23.554,36.338-11.811c25.278,14.7-5.251,49.719,13.433,59.853
							c18.684,10.134,38.001,10.922,43.385,38.951c7.038,36.646-59.247,88.167-115.3,55.549
							c-56.052-32.618-36.113-93.664-9.789-105.815C151.249,167.376,151.51,145.27,151.51,145.27z"/>
						<path style="fill:#D28A7B;" d="M162.577,200.551v32.35c0,4.19-1.704,7.981-4.451,10.728
							c-2.732,2.747-6.523,4.451-10.713,4.451c-8.38,0-15.164-6.799-15.164-15.179v-32.35H162.577z"/>
						<g>
							<path style="fill:#D28A7B;" d="M109.127,190.552c1.259,6.148,7.263,10.111,13.411,8.852
								c6.148-1.259,10.111-7.263,8.852-13.41c-1.259-6.148-7.263-10.112-13.41-8.853
								C111.832,178.4,107.869,184.404,109.127,190.552z"/>
							
								<line style="fill:none;stroke:#121D30;stroke-width:0.75;stroke-miterlimit:10;" x1="112.241" y1="186.245" x2="121.245" y2="192.337"/>
						</g>
						<g>
							<path style="fill:#D28A7B;" d="M173.445,188.272c1.259,6.148,7.263,10.111,13.411,8.853
								c6.147-1.259,10.111-7.263,8.852-13.41c-1.259-6.148-7.263-10.112-13.411-8.853
								C176.149,176.12,172.186,182.125,173.445,188.272z"/>
							<path style="fill:#121D30;" d="M183.511,185.993c0,0,6.498-7.107,4.215-23.959h-9.11L183.511,185.993z"/>
							
								<line style="fill:none;stroke:#121D30;stroke-width:0.75;stroke-miterlimit:10;" x1="182.705" y1="191.006" x2="191.519" y2="182.468"/>
						</g>
						<path style="fill:#D28A7B;" d="M155.03,141.587c16.318,0,29.546,13.228,29.546,29.546v24.277c0,0.604-0.048,1.192-0.127,1.781
							c-0.429,2.862-1.892,5.5-4.165,7.377l-11.971,9.952c-3.625,3.021-8.712,3.609-12.956,1.479l-23.322-11.701
							c-4.022-2.035-6.55-6.152-6.55-10.635v-22.528C125.484,154.815,138.712,141.587,155.03,141.587L155.03,141.587z"/>
						<path style="fill:none;stroke:#121D30;stroke-width:0.75;stroke-miterlimit:10;" d="M141.173,208.71l13.568,6.807
							c2.294,1.151,4.826,1.75,7.393,1.75h1.01"/>
						<polyline style="fill:none;stroke:#121D30;stroke-width:0.75;stroke-miterlimit:10;" points="159.662,141.587 
							167.175,193.319 157.748,193.319 						"/>
						<path style="fill:#CB705D;" d="M184.576,179.162v15.151c-0.35,0.048-0.715,0.079-1.097,0.079
							c-4.229,0-7.663-3.418-7.663-7.663c0-4.229,3.434-7.647,7.663-7.647C183.861,179.083,184.227,179.115,184.576,179.162z"/>
						<path style="fill:#CB705D;" d="M148.583,186.737c0,4.231-3.43,7.661-7.661,7.661c-4.231,0-7.661-3.43-7.661-7.661
							c0-4.231,3.43-7.661,7.661-7.661C145.153,179.076,148.583,182.506,148.583,186.737z"/>
						<g>
							<path style="fill:#121D30;" d="M178.943,179.425c0,2.649-1.182,4.796-2.64,4.796c-1.458,0-2.64-2.148-2.64-4.796
								s1.182-4.796,2.64-4.796C177.761,174.629,178.943,176.776,178.943,179.425z"/>
							<path style="fill:#121D30;" d="M151.259,179.425c0,2.649-1.182,4.796-2.64,4.796c-1.458,0-2.64-2.148-2.64-4.796
								s1.182-4.796,2.64-4.796C150.077,174.629,151.259,176.776,151.259,179.425z"/>
						</g>
						<path style="fill:#121D30;" d="M125.484,168.355v19.153c0,0,7.605-6.756,7.394-20.056L125.484,168.355z"/>
						<g>
							<path style="fill:#121D30;" d="M174.587,159.103c2.394-3.655,4.72-4.097,6.264,0.775L174.587,159.103z"/>
							<path style="fill:#121D30;" d="M141.789,160.479c0.35-4.355,2.179-5.858,5.869-2.322L141.789,160.479z"/>
						</g>
						<path style="fill:#121D30;" d="M193.043,137.514c-20.198-11.741-41.54,7.749-41.54,7.749s10.312,22.19-31.924,36.728
							c-6.954,2.394-15.624,14.064-19.814,20.74c0,0,9.254-26.695,12.17-43.962c2.931-17.282,18.279-14.611,18.279-14.611
							s9.301-22.73,35.024-22.623C183.058,121.612,193.043,137.514,193.043,137.514z"/>
					</g>
					<path style="fill:#121D30;" d="M157.771,204.828c4.69-9.438,9.379,0,9.379,0H157.771z"/>
				</g>
				<path style="fill:#DBA195;" d="M243.296,362.742l-33.829-75.652l-28.517,3.162l0.001,0.009
					c3.26,21.085,12.309,40.852,26.141,57.097l27.308,28.927L243.296,362.742z"/>
				<path style="fill:#DBA195;" d="M214.492,317.018L214.492,317.018c-5.009,6.288-14.166,7.326-20.454,2.317l-56.571-45.058
					c-6.288-5.008-7.326-14.166-2.317-20.454l0,0c5.008-6.288,14.166-7.326,20.454-2.317l59.021,47.844
					C214.625,299.35,219.5,310.73,214.492,317.018z"/>
				<g>
					<polygon style="fill:#1F2328;" points="213.292,283.624 185.38,281.788 155.991,291.346 185.377,292.49 					"/>
					<path style="fill:rgb(100 65 175)" d="M204.141,257.563l4.579,36.589l-44.047,6.079l6.444-65.521l12.041,1.64
						C194.151,237.848,202.763,246.553,204.141,257.563z"/>
					<polygon style="fill:#FFFFFF;" points="213.292,283.624 185.377,292.49 155.991,291.346 161.622,307.813 187.432,306.473 
						214.794,297.915 					"/>
				</g>
				<path style="fill:rgb(100 65 175)" d="M181.823,350.849h-58.231l-37.423-72.595c-6.164-11.958-1.023-26.639,11.254-32.139
					l38.664-17.321l35.029,5.917c12.127,2.048,20.61,13.119,19.433,25.361L181.823,350.849z"/>
				<polygon style="fill:rgb(100 65 175)" points="166.159,255.005 170.494,226.442 121.484,221.686 126.038,255.005 				"/>
				<g>
					<path style="fill:#FFFFFF;" d="M125.128,238.955c7.698,11.361,17.143,17.781,26.376,17.781c8.7,0,15.551-5.785,18.815-15.48
						c-0.275,12.225-1.792,38.034-9.576,45.962c-1.501,1.528-3.108,2.272-4.912,2.272c-0.736,0-1.513-0.129-2.312-0.383
						C138.571,284.35,128.418,251.241,125.128,238.955 M123.242,234.548c0,0,11.106,49.245,30.05,55.273
						c0.889,0.283,1.736,0.418,2.539,0.418c16.304,0,15.285-55.529,15.285-55.529c-2.109,13.748-10.026,21.276-19.612,21.276
						C142.409,255.986,131.811,249.212,123.242,234.548L123.242,234.548z"/>
				</g>
				<g>
					<polygon style="fill:#969696;" points="107.613,336.418 188.558,332.03 181.465,352.539 114.079,351.81 					"/>
					<path style="fill:#969696;" d="M181.465,352.539c0,0,27.727,25.634,29.37,71.356H86.842c0-42.97,27.236-72.085,27.236-72.085
						L181.465,352.539z"/>
					<path style="fill:none;stroke:#121D30;stroke-width:0.75;stroke-miterlimit:10;" d="M110.111,369.729h19.443
						c0,0-9.598,22.135-28.727,23.59"/>
					<path style="fill:none;stroke:#121D30;stroke-width:0.75;stroke-miterlimit:10;" d="M194.729,369.729h-10.718
						c0,0,4.097,20.956,21.497,23.59"/>
					<path style="fill:none;stroke:#121D30;stroke-width:0.75;stroke-miterlimit:10;" d="M158.394,353.925l-1.873,33.928
						c0,0-6.295-3.344-4.955-14.641"/>
					<rect x="118.098" y="349.04" style="fill:#121D30;" width="17.656" height="7.014"/>
					<rect x="172.52" y="349.04" style="fill:#121D30;" width="6.144" height="7.014"/>
					<rect x="140.659" y="349.04" style="fill:#121D30;" width="27.811" height="7.014"/>
					<rect x="151.365" y="347.63" style="fill:#FFFFFF;" width="11.898" height="9.834"/>
				</g>
				<path style="fill:rgb(100 65 175)" d="M182.179,266.798c20.803,30.789,19.727,45.54-5.822,56.818L182.179,266.798z"/>
				<polyline style="fill:none;stroke:#FFFFFF;stroke-width:0.75;stroke-miterlimit:10;" points="196.747,292.49 185.273,271.526 
					190.549,260.072 				"/>
				<g>
					<path style="fill:#DBA195;" d="M244.741,354.901l-26.938,9.624c7.787,13.476,12.646,23.271,12.646,23.271
						c7.18,2.582,14.833,1.572,20.562-0.02l-7.197-17.37c5.434,5.629,8.994,12.701,10.582,16.302
						c3.508-1.233,5.723-2.441,5.723-2.441C252.938,366.814,244.741,354.901,244.741,354.901z"/>
					<path style="fill:none;stroke:#121D30;stroke-width:0.75;stroke-miterlimit:10;" d="M245.758,388.94
						c-6.595-12.533-9.623-18.558-9.623-18.558"/>
					
						<line style="fill:none;stroke:#121D30;stroke-width:0.75;stroke-miterlimit:10;" x1="238.169" y1="389.009" x2="230.01" y2="372.217"/>
					<path style="fill:#DBA195;" d="M226.775,338.578l35.475,22.509l0,0c-2.535,3.995-7.829,5.179-11.824,2.644l-4.94-3.134
						l-9.287,1.925c-25.153,15.546-26.745-14.153-26.745-14.153L226.775,338.578z"/>
					<path style="fill:none;stroke:#121D30;stroke-width:0.75;stroke-miterlimit:10;" d="M217.55,357.527
						c10.521,12.426,23.064,0.958,23.064,0.958l9.811,5.246"/>
				</g>
			</g>
			<g>
				<path style="fill:#DBA195;" d="M160.453,323.438L160.453,323.438c-5.44,5.919-14.648,6.307-20.567,0.868l-55.328-50.32
					c5.857-6.133,12.266-13.368,19.313-21.076l53.356,48.609c4.257,3.98,6.633,9.721,5.923,15.505
					C162.862,319.367,162.085,321.663,160.453,323.438z"/>
				<g>
					<path style="fill:rgb(100 65 175)" d="M94.019,288.516l25.211,20.634l20.699-33.548l-23.858-23.462
						c-10.026-9.859-26.873-6.192-31.894,6.942l0,0c-0.968,2.532-1.455,5.242-1.267,7.947
						C83.487,275.346,87.46,283.148,94.019,288.516z"/>
					<polygon style="fill:#FFFFFF;" points="107.856,307.607 125.955,285.946 137.893,269.276 149.062,282.624 119.301,316.295 
											"/>
				</g>
				<g>
					<g>
						<path style="fill:#DBA195;" d="M168.011,251.682c-7.629-11.442-20.263-17.997-20.263-17.997l15.882-19.757
							c19.637,14.153,21.232,26.822,20.994,34.212L168.011,251.682z"/>
						<path style="fill:#DBA195;" d="M147.748,233.685c0,0-7.927-9.952-7.927-20.799l11.675-9.673c0,0,2.944,10.725,8.597,15.116
							c0,0-4.598-10.985-2.989-17.481l4.47,0.894c0,0,1.848,10.906,9.178,19.189L147.748,233.685z"/>
					</g>
					<path style="fill:none;stroke:#121D30;stroke-width:0.75;stroke-miterlimit:10;" d="M142.85,210.5
						c0,0,2.968,10.696,7.156,17.442"/>
					<path style="fill:none;stroke:#121D30;stroke-width:0.75;stroke-miterlimit:10;" d="M147.359,206.641
						c0,0,1.999,9.828,7.915,17.501"/>
				</g>
				<path style="fill:#DBA195;" d="M139.378,298.657l31.585-54.201l13.662,2.029c-0.099,28.213-6.34,55.545-23.885,76.629
					L139.378,298.657z"/>
				
					<line style="fill:none;stroke:#121D30;stroke-width:0.75;stroke-miterlimit:10;" x1="144.217" y1="289.666" x2="134.981" y2="306.828"/>
			</g>
		</g>
		<g>
			<polygon style="fill:#121D30;" points="194.062,390.591 414.134,390.591 463.763,265.395 243.691,265.395 			"/>
			<polygon style="fill:none;stroke:#121D30;stroke-miterlimit:10;" points="297.812,416.784 333.82,416.784 328.912,390.591 
				302.719,390.591 			"/>
			
				<rect x="265.743" y="416.784" transform="matrix(-1 -1.224647e-16 1.224647e-16 -1 631.6321 839.7835)" style="fill:none;stroke:#121D30;stroke-miterlimit:10;" width="100.146" height="6.215"/>
		</g>
		<line style="fill:none;stroke:#121D30;stroke-miterlimit:10;" x1="47.443" y1="423.196" x2="444.892" y2="423.196"/>
		
			<rect x="148.666" y="418.621" style="fill:#2E363D;stroke:#121D30;stroke-width:0.75;stroke-miterlimit:10;" width="107.53" height="4.523"/>
		<g>
			<g>
				<path style="fill:#2E363D;" d="M90.035,133.296l-6.734,3.473l-0.347-0.673c-0.591-1.146-0.941-2.143-1.05-2.992
					c-0.109-0.849-0.058-1.701,0.151-2.557c0.209-0.856,0.828-2.491,1.856-4.906c0.555-1.273,0.665-2.235,0.33-2.885
					c-0.335-0.65-0.788-1.056-1.357-1.218c-0.57-0.162-1.245-0.042-2.024,0.36c-0.839,0.433-1.39,1.068-1.653,1.907
					c-0.263,0.839-0.115,1.989,0.445,3.45l-7.315,2.695c-1.068-2.65-1.199-5.159-0.393-7.526c0.806-2.367,2.863-4.404,6.171-6.11
					c2.575-1.328,4.932-1.863,7.07-1.604c2.9,0.344,4.974,1.727,6.223,4.149c0.518,1.004,0.74,2.116,0.666,3.336
					c-0.074,1.22-0.62,2.945-1.639,5.175c-0.706,1.561-1.068,2.708-1.085,3.442C89.33,131.546,89.559,132.374,90.035,133.296z
					 M83.993,138.678l7.213-3.72l3.281,6.362l-7.213,3.72L83.993,138.678z"/>
			</g>
			<g>
				<path style="fill:#2E363D;" d="M132.701,92.255l-4.847,1.135l-0.114-0.485c-0.193-0.825-0.257-1.516-0.19-2.075
					c0.067-0.558,0.235-1.093,0.505-1.605c0.27-0.512,0.926-1.455,1.968-2.829c0.557-0.723,0.781-1.318,0.672-1.785
					c-0.109-0.468-0.333-0.799-0.67-0.993c-0.337-0.195-0.786-0.226-1.348-0.095c-0.604,0.141-1.057,0.458-1.358,0.951
					c-0.302,0.492-0.392,1.249-0.269,2.27l-5.092,0.547c-0.256-1.859,0.062-3.479,0.954-4.859c0.892-1.38,2.529-2.348,4.91-2.906
					c1.854-0.434,3.441-0.398,4.762,0.109c1.792,0.684,2.893,1.897,3.301,3.64c0.169,0.723,0.133,1.467-0.11,2.232
					c-0.242,0.765-0.867,1.777-1.872,3.035c-0.7,0.882-1.114,1.555-1.242,2.02C132.532,91.028,132.545,91.592,132.701,92.255z
					 M127.99,94.717l5.191-1.216l1.072,4.579l-5.191,1.216L127.99,94.717z"/>
			</g>
			<g>
				<path style="fill:#2E363D;" d="M182.921,83.402l-5.768-1.758l0.176-0.577c0.299-0.981,0.653-1.744,1.063-2.289
					c0.409-0.544,0.911-1.002,1.505-1.374c0.594-0.372,1.855-0.961,3.782-1.767c1.023-0.418,1.62-0.905,1.789-1.462
					c0.17-0.556,0.137-1.039-0.098-1.448c-0.235-0.409-0.686-0.715-1.354-0.919c-0.719-0.219-1.385-0.162-2.001,0.17
					c-0.615,0.332-1.169,1.07-1.662,2.214l-5.667-2.523c0.862-2.104,2.18-3.607,3.954-4.509c1.773-0.903,4.077-0.922,6.91-0.059
					c2.206,0.672,3.846,1.676,4.922,3.01c1.462,1.806,1.877,3.746,1.245,5.82c-0.262,0.86-0.753,1.617-1.472,2.272
					c-0.719,0.654-1.988,1.335-3.807,2.041c-1.269,0.498-2.112,0.951-2.53,1.361C183.491,82.014,183.162,82.613,182.921,83.402z
					 M176.489,83.117L182.667,85l-1.661,5.449l-6.177-1.883L176.489,83.117z"/>
			</g>
			<g>
				<path style="fill:#2E363D;" d="M222.04,124.723l-5.209-3.037l0.304-0.521c0.517-0.886,1.037-1.547,1.56-1.983
					c0.523-0.436,1.117-0.766,1.781-0.991c0.664-0.225,2.026-0.509,4.087-0.85c1.092-0.172,1.784-0.509,2.077-1.011
					c0.293-0.503,0.372-0.98,0.238-1.432c-0.135-0.452-0.503-0.854-1.107-1.205c-0.649-0.378-1.311-0.476-1.986-0.295
					c-0.675,0.182-1.384,0.773-2.126,1.773l-4.935-3.759c1.323-1.849,2.951-3.009,4.885-3.48c1.934-0.471,4.18,0.04,6.738,1.532
					c1.992,1.161,3.358,2.515,4.098,4.061c1.008,2.094,0.966,4.077-0.126,5.951c-0.453,0.777-1.105,1.401-1.955,1.872
					c-0.85,0.471-2.242,0.842-4.174,1.111c-1.349,0.193-2.274,0.44-2.775,0.743C222.913,123.503,222.455,124.01,222.04,124.723z
					 M215.845,122.967l5.579,3.253l-2.869,4.921l-5.579-3.253L215.845,122.967z"/>
			</g>
		</g>
	</g>
</g>
</svg>
